<svg width="66" height="66" viewBox="0 0 66 66" fill="none" xmlns="http://www.w3.org/2000/svg">
<path d="M13.75 5.5H24.75V11H19.25V16.5H13.75V5.5Z" fill="#EBE7DC"/>
<path d="M13.75 33H8.25V16.5H13.75V33Z" fill="#EBE7DC"/>
<path d="M19.25 38.5H13.75V33H19.25V38.5Z" fill="#EBE7DC"/>
<path fill-rule="evenodd" clip-rule="evenodd" d="M24.75 44V38.5H19.25V44H8.25V38.5H2.75V44H8.25V49.5H19.25V60.5H24.75V49.5H30.25V44H24.75ZM24.75 44V49.5H19.25V44H24.75Z" fill="#EBE7DC"/>
<path d="M41.25 11V16.5H24.75V11H41.25Z" fill="#EBE7DC"/>
<path d="M52.25 16.5H46.75V11H41.25V5.5H52.25V16.5Z" fill="#EBE7DC"/>
<path d="M52.25 33V16.5H57.75V33H52.25Z" fill="#EBE7DC"/>
<path d="M46.75 38.5V33H52.25V38.5H46.75Z" fill="#EBE7DC"/>
<path d="M41.25 44V38.5H46.75V44H41.25Z" fill="#EBE7DC"/>
<path d="M41.25 49.5H35.75V44H41.25V49.5Z" fill="#EBE7DC"/>
<path d="M41.25 49.5H46.75V60.5H41.25V49.5Z" fill="#EBE7DC"/>
</svg>
