<svg width="60" height="60" viewBox="0 0 60 60" fill="none" xmlns="http://www.w3.org/2000/svg">
<g clip-path="url(#clip0_11_24)">
<path d="M60 5.71875H57.1312V54.2813H60V5.71875Z" fill="#EBE7DC"/>
<path d="M57.1312 54.2812H54.2812V57.15H57.1312V54.2812Z" fill="#EBE7DC"/>
<path d="M57.1312 2.85001H54.2812V5.71876H57.1312V2.85001Z" fill="#EBE7DC"/>
<path d="M54.2812 8.56876H51.4125V51.4313H54.2812V8.56876Z" fill="#EBE7DC"/>
<path d="M54.2813 57.15H5.70001V60H54.2813V57.15Z" fill="#EBE7DC"/>
<path d="M51.4125 51.4312H8.56873V54.2812H51.4125V51.4312Z" fill="#EBE7DC"/>
<path d="M42.8437 28.575H39.9937V25.7062H34.275V28.575H31.425V25.7062H25.7062V42.8625H31.425V34.2937H34.275V31.425H37.1437V34.2937H39.9937V42.8625H45.7125V31.425H42.8437V28.575Z" fill="#EBE7DC"/>
<path d="M19.9875 25.7062H14.2687V42.8625H19.9875V25.7062Z" fill="#EBE7DC"/>
<path d="M19.9875 17.1375H14.2687V22.8563H19.9875V17.1375Z" fill="#EBE7DC"/>
<path d="M51.4125 5.71875H8.56873V8.56875H51.4125V5.71875Z" fill="#EBE7DC"/>
<path d="M54.2813 0H5.70001V2.85H54.2813V0Z" fill="#EBE7DC"/>
<path d="M8.56876 8.56876H5.70001V51.4313H8.56876V8.56876Z" fill="#EBE7DC"/>
<path d="M5.69998 54.2812H2.84998V57.15H5.69998V54.2812Z" fill="#EBE7DC"/>
<path d="M5.69998 2.85001H2.84998V5.71876H5.69998V2.85001Z" fill="#EBE7DC"/>
<path d="M2.85 5.71875H0V54.2813H2.85V5.71875Z" fill="#EBE7DC"/>
</g>
<defs>
<clipPath id="clip0_11_24">
<rect width="60" height="60" fill="white"/>
</clipPath>
</defs>
</svg>
